<svg x="0" y="0" width="48" height="48" version="1.1" xmlns="http://www.w3.org/2000/svg" xmlns:xlink="http://www.w3.org/1999/xlink"><defs><linearGradient x1="6.95157" y1="17.07361" x2="73.36409" y2="63.24205" gradientUnits="userSpaceOnUse" id="color-1"><stop offset="0" stop-color="#000000" stop-opacity="0.2"></stop><stop offset="1" stop-color="#000000" stop-opacity="0"></stop></linearGradient><filter id="dropshadow"><feColorMatrix type="matrix" values="0 0 0 0 .05  0 0 0 0 .15  0 0 0 0 .1  0 0 0 .8 0"></feColorMatrix> <feOffset dx="0" dy="1"></feOffset> <feGaussianBlur stdDeviation="1"></feGaussianBlur> <feComposite in="SourceGraphic"></feComposite></filter></defs><g fill="none" stroke="none" stroke-width="none" stroke-linecap="butt" stroke-linejoin="miter" stroke-miterlimit="none" stroke-dasharray="" stroke-dashoffset="0" font-family="none" font-weight="normal" font-size="none" text-anchor="start" mix-blend-mode="normal"><g fill="#000000" stroke="none" stroke-width="1" stroke-miterlimit="4" font-family="&quot;Open Sans&quot;, sans-serif" font-size="14"></g><g id="Laag_1" fill="#000000" stroke="none" stroke-width="1" stroke-miterlimit="4" font-family="Raleway-Light" font-size="120"><text x="150" y="261.5996">B&amp;S</text></g><g id="Laag_1" fill="#000000" stroke="none" stroke-width="1" stroke-miterlimit="4" font-family="&quot;Open Sans&quot;, sans-serif" font-size="14"><g></g></g><path d="M5,45c-1.10457,0 -2,-0.89543 -2,-2l0,-38c0,-1.10457 0.89543,-2 2,-2l38,0c1.10457,0 2,0.89543 2,2l0,38c0,1.10457 -0.89543,2 -2,2z" fill="#009688" stroke-width="1" stroke-miterlimit="10" font-family="sans-serif" font-size="12" filter="url(#dropshadow)"></path><path d="M21.2097,45l-14.25812,-14.25812l0,-13.49114l6.28799,0c0.46495,0 0.893,0.10333 1.2694,0.3026c0.2823,0.14944 0.53554,0.33626 0.75659,0.55732c0,0 5.68484,5.68484 5.68484,5.68484c0.24005,-0.17885 0.48904,-0.35363 0.74696,-0.52246c-0.35425,-0.3764 -0.65685,-0.72327 -0.9004,-1.03324c-0.24355,-0.30997 -0.44282,-0.59042 -0.5978,-0.84873c-0.15498,-0.25094 -0.26569,-0.49449 -0.33211,-0.73065c-0.06642,-0.23616 -0.10333,-0.46496 -0.10333,-0.69375c0,-0.39115 0.08856,-0.76016 0.25831,-1.11442l0.66989,0.66989c0,0 0,-0.00001 0,-0.00001l-0.6699,-0.6699c0.16975,-0.34687 0.39853,-0.65684 0.69375,-0.92253c0.28783,-0.26569 0.64209,-0.47234 1.048,-0.62733c0.40591,-0.15498 0.84134,-0.22878 1.31368,-0.22878c0,0 0.00001,0 0.00001,0c0.42805,0 0.82657,0.06643 1.19559,0.19927c0.36902,0.13285 0.68636,0.30998 0.95944,0.53876c0.05808,0.04865 0.11348,0.09931 0.16614,0.15198c0,0 0.00697,0.00697 0.00697,0.00697c-0.00231,-0.00233 -0.00463,-0.00466 -0.00695,-0.00698l11.96115,11.96115c0.51379,-0.07334 0.96022,-0.20314 1.34222,-0.39039l-6.60611,-6.60611c-0.18384,-0.18383 -0.33327,-0.38735 -0.44995,-0.60726c-0.19189,-0.36902 -0.28783,-0.82658 -0.28783,-1.38749l3.15951,3.15951c0.00001,0 0.00001,0 0.00002,0.00001c0,0 -3.15953,-3.15953 -3.15953,-3.15953c0,-0.60518 0.11809,-1.14392 0.35425,-1.61626l-0.00001,-0.00001c0.23618,-0.46495 0.56091,-0.86349 0.98158,-1.18822c0.42067,-0.32474 0.91516,-0.56829 1.4982,-0.73065c0.58305,-0.16236 1.22513,-0.24355 1.94102,-0.24355l0.00001,0.00001c0.87087,0 1.65317,0.13284 2.33953,0.39115c0.68638,0.25831 1.30631,0.65684 1.85983,1.18822l4.66746,4.66746l0,19.59836c0,1.10457 -0.89543,2 -2,2z" fill="url(#color-1)" stroke-width="1" stroke-miterlimit="10" font-family="sans-serif" font-size="12"></path><path d="M28.81194,30.74188l-1.72698,-1.80817c-0.51662,0.60518 -1.12918,1.09228 -1.82293,1.45391c-0.69375,0.36163 -1.46867,0.53876 -2.3174,0.53876c-0.5609,0 -1.09228,-0.08118 -1.6089,-0.24355c-0.51662,-0.16237 -0.96682,-0.39853 -1.35797,-0.71589c-0.39115,-0.30997 -0.70113,-0.68637 -0.92991,-1.1218c-0.22879,-0.43544 -0.33949,-0.93729 -0.33949,-1.49081c0,-0.45758 0.08118,-0.87825 0.23617,-1.26203c0.15499,-0.38377 0.37639,-0.73803 0.64946,-1.06276c0.27307,-0.32473 0.59042,-0.62732 0.95205,-0.92253c0.36163,-0.28783 0.74541,-0.56828 1.15132,-0.83397c-0.35425,-0.37639 -0.65684,-0.72327 -0.90039,-1.03324c-0.24355,-0.30997 -0.44282,-0.59042 -0.5978,-0.84873c-0.15499,-0.25093 -0.26569,-0.49448 -0.33211,-0.73065c-0.06642,-0.23617 -0.10332,-0.46496 -0.10332,-0.69375c0,-0.39115 0.08856,-0.76017 0.25831,-1.11442c0.16975,-0.34687 0.39853,-0.65684 0.69375,-0.92253c0.28783,-0.26569 0.64208,-0.47234 1.048,-0.62732c0.40591,-0.15499 0.84135,-0.22879 1.31369,-0.22879c0.42806,0 0.82659,0.06642 1.1956,0.19927c0.36901,0.13284 0.68637,0.30997 0.95944,0.53876c0.27307,0.22879 0.4871,0.50186 0.6347,0.81921c0.15499,0.31735 0.22879,0.65684 0.22879,1.02586c0,0.37639 -0.08118,0.73803 -0.24355,1.07014c-0.16237,0.33211 -0.39115,0.64946 -0.6716,0.95205c-0.28783,0.29521 -0.61256,0.58304 -0.98896,0.85611c-0.37639,0.27307 -0.76017,0.54614 -1.16608,0.82659l4.06653,4.22151c0.28045,-0.49448 0.49448,-1.03324 0.64946,-1.62366c0.15499,-0.59042 0.22879,-1.20298 0.22879,-1.83031l0.83397,0c-0.02214,1.52034 -0.40591,2.87831 -1.13656,4.06653l2.45025,2.54619z M39.83068,19.49435c-0.87087,-0.9742 -2.11076,-1.46129 -3.7049,-1.46129c-1.31369,0 -2.2805,0.25093 -2.87831,0.75279c-0.60518,0.50186 -0.90039,1.17346 -0.90039,2.02219c0,0.42806 0.0738,0.78969 0.22879,1.07014c0.15499,0.28783 0.39115,0.53138 0.71589,0.73065c0.32473,0.19927 0.73065,0.37639 1.22512,0.51662c0.49448,0.14023 1.09228,0.28783 1.78603,0.43544c0.72327,0.15499 1.38011,0.31735 1.96315,0.50186c0.59042,0.18451 1.09228,0.4133 1.49819,0.69375c0.4133,0.28045 0.73065,0.61994 0.95205,1.02586c0.22141,0.40591 0.33211,0.90777 0.33211,1.49819c0,0.5978 -0.11808,1.11442 -0.35425,1.55724c-0.23617,0.44282 -0.5609,0.81183 -0.98896,1.11442c-0.42806,0.29521 -0.92991,0.524 -1.52034,0.6716c-0.59042,0.15499 -1.24727,0.22879 -1.96315,0.22879c-2.10338,0 -3.88202,-0.6716 -5.33593,-2.01481l0.51662,-0.78231c0.56828,0.5978 1.26941,1.07014 2.08862,1.41701c0.82659,0.34687 1.74912,0.524 2.77498,0.524c1.18084,0 2.096,-0.21403 2.7676,-0.64946c0.66422,-0.42806 0.99634,-1.0849 0.99634,-1.95577c0,-0.44282 -0.08856,-0.81921 -0.26569,-1.12918c-0.17713,-0.30997 -0.44282,-0.58304 -0.78969,-0.80445c-0.34687,-0.22879 -0.78969,-0.42068 -1.32107,-0.59042c-0.53138,-0.16237 -1.15132,-0.32473 -1.85983,-0.47234c-0.72327,-0.15499 -1.35797,-0.30997 -1.91149,-0.4871c-0.55352,-0.16975 -1.0111,-0.38377 -1.38749,-0.64946c-0.37639,-0.25831 -0.65684,-0.57566 -0.84873,-0.93729c-0.19189,-0.36901 -0.28783,-0.82659 -0.28783,-1.38749c0,-0.60518 0.11808,-1.14394 0.35425,-1.61628c0.23617,-0.46496 0.5609,-0.86349 0.98158,-1.18822c0.42068,-0.32473 0.91515,-0.56828 1.49819,-0.73065c0.58304,-0.16237 1.22512,-0.24355 1.94101,-0.24355c0.87087,0 1.65318,0.13284 2.33955,0.39115c0.68637,0.25831 1.30631,0.65684 1.85983,1.18822z M16.90018,27.24363c0,0.49448 -0.09594,0.95205 -0.28783,1.38011c-0.19189,0.42806 -0.4502,0.79707 -0.78231,1.11442c-0.33211,0.31735 -0.71589,0.5609 -1.1587,0.73803c-0.44282,0.17713 -0.91515,0.26569 -1.40963,0.26569l-6.31013,0l0,-13.49113l6.28799,0c0.46496,0 0.89301,0.10332 1.26941,0.30259c0.37639,0.19927 0.70113,0.46496 0.96682,0.78969c0.26569,0.32473 0.47234,0.69375 0.61994,1.09966c0.14761,0.4133 0.22141,0.82659 0.22141,1.24727c0,0.68637 -0.16975,1.31369 -0.51662,1.88197c-0.33949,0.56828 -0.81921,0.98896 -1.42439,1.25465c0.77493,0.22879 1.38011,0.65684 1.83031,1.28417c0.46496,0.62732 0.69375,1.33583 0.69375,2.1329z M15.92599,27.11078c0,-0.35425 -0.06642,-0.70113 -0.19189,-1.03324c-0.12546,-0.33211 -0.30259,-0.6347 -0.53138,-0.89301c-0.22879,-0.25831 -0.49448,-0.46496 -0.80445,-0.61994c-0.30997,-0.15499 -0.64208,-0.22879 -0.99634,-0.22879l-5.46878,0l0,5.52782l5.33593,0c0.37639,0 0.73065,-0.0738 1.05538,-0.22879c0.32473,-0.15499 0.5978,-0.35425 0.83397,-0.61994c0.23617,-0.25831 0.42068,-0.55352 0.5609,-0.88563c0.14023,-0.31735 0.20665,-0.66422 0.20665,-1.01848z M23.05533,30.15145c0.72327,0 1.37273,-0.16237 1.95577,-0.4871c0.58304,-0.32473 1.09228,-0.76017 1.52034,-1.29893l-4.29532,-4.50196c-0.36901,0.25093 -0.70851,0.50924 -1.01848,0.76017c-0.30997,0.25093 -0.58304,0.524 -0.82659,0.80445c-0.24355,0.28783 -0.42806,0.59042 -0.5609,0.91515c-0.13284,0.32473 -0.19927,0.6716 -0.19927,1.05538c0,0.45758 0.10332,0.85611 0.30259,1.1956c0.19927,0.33949 0.46496,0.62732 0.78969,0.86349c0.32473,0.23617 0.69375,0.40591 1.09966,0.524c0.4133,0.1107 0.82659,0.16975 1.2325,0.16975z M7.93315,23.52397l4.9374,0c0.36901,0 0.70113,-0.0738 1.00372,-0.22879c0.30259,-0.15499 0.56828,-0.35425 0.78969,-0.5978c0.22141,-0.24355 0.39853,-0.53138 0.524,-0.86349c0.12546,-0.33211 0.19189,-0.66422 0.19189,-1.00372c0,-0.36901 -0.05904,-0.71589 -0.17713,-1.03324c-0.11808,-0.32473 -0.28783,-0.60518 -0.49448,-0.85611c-0.20665,-0.25093 -0.45758,-0.44282 -0.75279,-0.59042c-0.29521,-0.14761 -0.61256,-0.22141 -0.96682,-0.22141l-5.05548,0z M20.64198,19.95192c0,0.16237 0.02214,0.33211 0.06642,0.49448c0.04428,0.16237 0.13284,0.35425 0.26569,0.56828c0.13284,0.21403 0.31735,0.46496 0.55352,0.75279c0.23617,0.28783 0.53138,0.62732 0.90039,1.01848c0.83397,-0.54614 1.50557,-1.048 2.01481,-1.51296c0.50924,-0.46496 0.76017,-0.98158 0.76017,-1.56462c0,-0.53138 -0.19927,-0.9742 -0.60518,-1.32107c-0.40591,-0.34687 -0.92253,-0.524 -1.55724,-0.524c-0.33949,0 -0.65684,0.05904 -0.95205,0.16975c-0.29521,0.1107 -0.54614,0.26569 -0.76017,0.45758c-0.21403,0.19189 -0.38377,0.4133 -0.50186,0.66422c-0.12546,0.25093 -0.18451,0.51662 -0.18451,0.79707z" fill="#aef25e" stroke-width="0" stroke-miterlimit="10" font-family="sans-serif" font-size="12"></path></g></svg>