<svg x="0" y="0" width="48" height="48" version="1.1" xmlns="http://www.w3.org/2000/svg" xmlns:xlink="http://www.w3.org/1999/xlink"><defs><linearGradient x1="11.10349" y1="16.3971" x2="58.00863" y2="52.71502" gradientUnits="userSpaceOnUse" id="color-1"><stop offset="0" stop-color="#000000" stop-opacity="0.37"></stop><stop offset="1" stop-color="#000000" stop-opacity="0"></stop></linearGradient><filter id="dropshadow"><feColorMatrix type="matrix" values="0 0 0 0 .05  0 0 0 0 .15  0 0 0 0 .1  0 0 0 .8 0"></feColorMatrix> <feOffset dx="0" dy="1"></feOffset> <feGaussianBlur stdDeviation="1"></feGaussianBlur> <feComposite in="SourceGraphic"></feComposite></filter></defs><g fill="none" stroke="none" stroke-width="none" stroke-linecap="butt" stroke-linejoin="miter" stroke-miterlimit="none" stroke-dasharray="" stroke-dashoffset="0" font-family="none" font-weight="normal" font-size="none" text-anchor="start" mix-blend-mode="normal"><g id="Laag_1" fill="#000000" stroke="none" stroke-width="1" stroke-miterlimit="4" font-family="&quot;Open Sans&quot;, sans-serif" font-size="14"><g></g></g><path d="M5,45c-1.10457,0 -2,-0.89543 -2,-2l0,-38c0,-1.10457 0.89543,-2 2,-2l38,0c1.10457,0 2,0.89543 2,2l0,38c0,1.10457 -0.89543,2 -2,2z" fill="#118575" stroke-width="1" stroke-miterlimit="10" font-family="sans-serif" font-size="12" filter="url(#dropshadow)"></path><path d="M12.29722,17.59083l0.00001,0l-1.19374,-1.19374l6.0681,0c0.87079,0 1.84649,0.16946 2.56806,0.89104l3.86575,3.86575l0.38749,-4.75678l1.64848,0c0,0 6.3038,6.3038 6.3038,6.3038l1.93859,-6.3038l1.81113,1.81113l0,-0.00001l-1.81112,-1.81112l1.64848,0c0,0 9.46775,9.46775 9.46775,9.46775l0,17.13514c0,1.10457 -0.89543,2 -2,2l-18.49941,0l-13.3971,-13.3971l0,-15.2058z" fill="url(#color-1)" stroke-width="1" stroke-miterlimit="10" font-family="sans-serif" font-size="12"></path><path d="M23.99289,16.3971l1.64848,0l4.17804,13.21625l4.06435,-13.21625l1.64848,0l1.36426,15.19158l-1.17951,0l-1.19373,-13.1452l-4.06435,13.1452l-1.23636,0l-4.19225,-13.15941l-1.09425,13.1452l-1.17951,0z M11.1035,16.3971l6.06811,0c1.63427,0 3.63802,0.59686 3.63802,4.32015c0,4.30594 -2.10323,4.51911 -3.63802,4.51911c-0.82424,0 -4.78912,-0.28422 -4.88859,-0.34106l0,6.7076l-1.17951,0z M17.1716,24.04263c1.26478,0 2.4443,-0.3837 2.43009,-3.33959c-0.02842,-2.88484 -1.4211,-3.11221 -2.43009,-3.11221l-4.88859,0l0,6.43759l4.88859,0z" fill="#ffffff" stroke-width="0" stroke-miterlimit="10" font-family="sans-serif" font-size="12"></path></g></svg>