<?xml version="1.0" encoding="utf-8"?>
<!-- Generator: Adobe Illustrator 19.2.1, SVG Export Plug-In . SVG Version: 6.00 Build 0)  -->
<svg version="1.1" id="Laag_1" xmlns="http://www.w3.org/2000/svg" xmlns:xlink="http://www.w3.org/1999/xlink" x="0px" y="0px"
	 viewBox="0 0 841.9 595.3" style="enable-background:new 0 0 841.9 595.3;" xml:space="preserve">
<g>
	<path d="M318.3,333.8c0,6.7-1.3,12.9-3.9,18.7c-2.6,5.8-6.1,10.8-10.6,15.1c-4.5,4.3-9.7,7.6-15.7,10c-6,2.4-12.4,3.6-19.1,3.6
		h-85.5V198.4h85.2c6.3,0,12.1,1.4,17.2,4.1c5.1,2.7,9.5,6.3,13.1,10.7c3.6,4.4,6.4,9.4,8.4,14.9c2,5.6,3,11.2,3,16.9
		c0,9.3-2.3,17.8-7,25.5c-4.6,7.7-11.1,13.4-19.3,17c10.5,3.1,18.7,8.9,24.8,17.4C315.2,313.4,318.3,323,318.3,333.8z M196.8,210.3
		v73.1h66.9c5,0,9.5-1,13.6-3.1c4.1-2.1,7.7-4.8,10.7-8.1c3-3.3,5.4-7.2,7.1-11.7c1.7-4.5,2.6-9,2.6-13.6c0-5-0.8-9.7-2.4-14
		c-1.6-4.4-3.9-8.2-6.7-11.6s-6.2-6-10.2-8c-4-2-8.3-3-13.1-3H196.8z M305.1,332c0-4.8-0.9-9.5-2.6-14c-1.7-4.5-4.1-8.6-7.2-12.1
		c-3.1-3.5-6.7-6.3-10.9-8.4c-4.2-2.1-8.7-3.1-13.5-3.1h-74.1v74.9h72.3c5.1,0,9.9-1,14.3-3.1c4.4-2.1,8.1-4.8,11.3-8.4
		c3.2-3.5,5.7-7.5,7.6-12C304.2,341.5,305.1,336.8,305.1,332z"/>
	<path d="M479.7,381.2l-23.4-24.5c-7,8.2-15.3,14.8-24.7,19.7c-9.4,4.9-19.9,7.3-31.4,7.3c-7.6,0-14.8-1.1-21.8-3.3
		c-7-2.2-13.1-5.4-18.4-9.7c-5.3-4.2-9.5-9.3-12.6-15.2c-3.1-5.9-4.6-12.7-4.6-20.2c0-6.2,1.1-11.9,3.2-17.1
		c2.1-5.2,5.1-10,8.8-14.4c3.7-4.4,8-8.5,12.9-12.5c4.9-3.9,10.1-7.7,15.6-11.3c-4.8-5.1-8.9-9.8-12.2-14c-3.3-4.2-6-8-8.1-11.5
		c-2.1-3.4-3.6-6.7-4.5-9.9c-0.9-3.2-1.4-6.3-1.4-9.4c0-5.3,1.2-10.3,3.5-15.1c2.3-4.7,5.4-8.9,9.4-12.5c3.9-3.6,8.7-6.4,14.2-8.5
		c5.5-2.1,11.4-3.1,17.8-3.1c5.8,0,11.2,0.9,16.2,2.7c5,1.8,9.3,4.2,13,7.3c3.7,3.1,6.6,6.8,8.6,11.1c2.1,4.3,3.1,8.9,3.1,13.9
		c0,5.1-1.1,10-3.3,14.5c-2.2,4.5-5.3,8.8-9.1,12.9c-3.9,4-8.3,7.9-13.4,11.6c-5.1,3.7-10.3,7.4-15.8,11.2l55.1,57.2
		c3.8-6.7,6.7-14,8.8-22c2.1-8,3.1-16.3,3.1-24.8h11.3c-0.3,20.6-5.5,39-15.4,55.1l33.2,34.5H479.7z M401.7,373.2
		c9.8,0,18.6-2.2,26.5-6.6c7.9-4.4,14.8-10.3,20.6-17.6l-58.2-61c-5,3.4-9.6,6.9-13.8,10.3c-4.2,3.4-7.9,7.1-11.2,10.9
		c-3.3,3.9-5.8,8-7.6,12.4c-1.8,4.4-2.7,9.1-2.7,14.3c0,6.2,1.4,11.6,4.1,16.2c2.7,4.6,6.3,8.5,10.7,11.7c4.4,3.2,9.4,5.5,14.9,7.1
		C390.6,372.4,396.2,373.2,401.7,373.2z M369,235c0,2.2,0.3,4.5,0.9,6.7c0.6,2.2,1.8,4.8,3.6,7.7c1.8,2.9,4.3,6.3,7.5,10.2
		c3.2,3.9,7.2,8.5,12.2,13.8c11.3-7.4,20.4-14.2,27.3-20.5c6.9-6.3,10.3-13.3,10.3-21.2c0-7.2-2.7-13.2-8.2-17.9
		c-5.5-4.7-12.5-7.1-21.1-7.1c-4.6,0-8.9,0.8-12.9,2.3c-4,1.5-7.4,3.6-10.3,6.2c-2.9,2.6-5.2,5.6-6.8,9
		C369.8,227.6,369,231.2,369,235z"/>
	<path d="M629,228.8c-11.8-13.2-28.6-19.8-50.2-19.8c-17.8,0-30.9,3.4-39,10.2c-8.2,6.8-12.2,15.9-12.2,27.4c0,5.8,1,10.7,3.1,14.5
		c2.1,3.9,5.3,7.2,9.7,9.9c4.4,2.7,9.9,5.1,16.6,7c6.7,1.9,14.8,3.9,24.2,5.9c9.8,2.1,18.7,4.3,26.6,6.8c8,2.5,14.8,5.6,20.3,9.4
		c5.6,3.8,9.9,8.4,12.9,13.9c3,5.5,4.5,12.3,4.5,20.3c0,8.1-1.6,15.1-4.8,21.1c-3.2,6-7.6,11-13.4,15.1c-5.8,4-12.6,7.1-20.6,9.1
		c-8,2.1-16.9,3.1-26.6,3.1c-28.5,0-52.6-9.1-72.3-27.3l7-10.6c7.7,8.1,17.2,14.5,28.3,19.2c11.2,4.7,23.7,7.1,37.6,7.1
		c16,0,28.4-2.9,37.5-8.8c9-5.8,13.5-14.7,13.5-26.5c0-6-1.2-11.1-3.6-15.3c-2.4-4.2-6-7.9-10.7-10.9c-4.7-3.1-10.7-5.7-17.9-8
		c-7.2-2.2-15.6-4.4-25.2-6.4c-9.8-2.1-18.4-4.2-25.9-6.6c-7.5-2.3-13.7-5.2-18.8-8.8c-5.1-3.5-8.9-7.8-11.5-12.7
		c-2.6-5-3.9-11.2-3.9-18.8c0-8.2,1.6-15.5,4.8-21.9c3.2-6.3,7.6-11.7,13.3-16.1c5.7-4.4,12.4-7.7,20.3-9.9
		c7.9-2.2,16.6-3.3,26.3-3.3c11.8,0,22.4,1.8,31.7,5.3c9.3,3.5,17.7,8.9,25.2,16.1L629,228.8z"/>
</g>
</svg>
